#!OML:ASF C:\ViconDB\ViconDB\414\Spring2016\042216\male.ASF
:FULLY-SPECIFIED
:DEGREES
677
root 45.0423 17.782 12.2459 -85.1516 88.8161 -86.3673
lowerback -3.20663 -1.68805 4.2838
upperback -1.32678 -2.35747 -0.67803
thorax 0.23029 -1.19113 -3.17287
lowerneck -3.72704 4.87421 -1.05012
upperneck 10.6704 6.73718 0.231691
head 4.10533 3.34364 0.578575
rclavicle 9.19379e-015 -1.03368e-014
rhumerus -32.0517 -6.1462 -92.7802
rradius 26.0745
rwrist 34.5538
rhand 15.0702 -17.3902
rfingers 7.12502
rthumb 39.9177 -42.641
lclavicle 9.19379e-015 -1.03368e-014
lhumerus -37.0667 12.1752 87.7885
lradius 31.955
lwrist -16.3136
lhand -6.45834 12.2507
lfingers 7.12502
lthumb 19.3917 41.3038
rfemur -7.44275 6.43108 22.5723
rtibia 23.4245
rfoot -18.3014 -8.56459
rtoes -8.16438
lfemur -7.09452 -1.53645 -19.0094
ltibia 25.5074
lfoot -26.8825 8.01089
ltoes -10.3801
678
root 45.0442 17.782 12.2422 -82.86 88.844 -84.0407
lowerback -3.23905 -1.67326 4.27809
upperback -1.30073 -2.33982 -0.676556
thorax 0.277061 -1.18084 -3.16941
lowerneck -3.71238 5.03934 -0.834959
upperneck 10.6545 6.96468 0.030044
head 4.11208 3.45547 0.485236
rclavicle 4.78947e-015 -2.68359e-015
rhumerus -32.0266 -5.94696 -92.8436
rradius 26.0347
rwrist 34.2589
rhand 14.9839 -17.4513
rfingers 7.12502
rthumb 39.8365 -42.7264
lclavicle 4.78947e-015 -2.68359e-015
lhumerus -37.0871 12.0982 87.8395
lradius 31.9762
lwrist -16.2888
lhand -7.03528 13.5775
lfingers 7.12502
lthumb 18.8369 42.6854
rfemur -7.42242 6.35053 22.5092
rtibia 23.4385
rfoot -18.3192 -8.40518
rtoes -8.04858
lfemur -7.02678 -1.50304 -19.0593
ltibia 25.4933
lfoot -26.8809 8.01293
ltoes -10.4465
679
root 45.0465 17.7816 12.2395 -80.7287 88.8544 -81.8817
lowerback -3.26936 -1.66402 4.28416
upperback -1.29111 -2.32934 -0.665854
thorax 0.305024 -1.17477 -3.16279
lowerneck -3.59422 5.21205 -0.706152
upperneck 10.573 7.19966 -0.106176
head 4.06972 3.57172 0.423407
rclavicle -1.20078e-014 -2.5842e-015
rhumerus -32.045 -6.17936 -92.7178
rradius 26.0071
rwrist 34.6346
rhand 15.0382 -17.3116
rfingers 7.12502
rthumb 39.8876 -42.5715
lclavicle -1.20078e-014 -2.5842e-015
lhumerus -37.1408 12.3163 87.7533
lradius 31.9136
lwrist -16.5638
lhand -7.13597 13.6076
lfingers 7.12502
lthumb 18.74 42.7249
rfemur -7.43272 6.31457 22.4684
rtibia 23.5069
rfoot -18.3737 -8.30084
rtoes -7.90038
lfemur -6.94929 -1.50083 -19.092
ltibia 25.4333
lfoot -26.8723 8.03664
ltoes -10.4156
680
root 45.0466 17.7819 12.2372 -79.5341 88.8735 -80.6637
lowerback -3.28075 -1.6516 4.29911
upperback -1.28354 -2.31392 -0.676073
thorax 0.319466 -1.16671 -3.18184
lowerneck -3.47907 5.39401 -0.56199
upperneck 10.4809 7.4432 -0.219783
head 4.02474 3.69383 0.366607
rclavicle -7.32397e-015 6.95746e-015
rhumerus -32.0389 -6.07506 -92.7592
rradius 25.966
rwrist 34.4126
rhand 15.1033 -17.3536
rfingers 7.12502
rthumb 39.9489 -42.5951
lclavicle -7.32397e-015 6.95746e-015
lhumerus -37.1713 12.1984 87.7804
lradius 31.8992
lwrist -16.4803
lhand -7.31763 13.5458
lfingers 7.12502
lthumb 18.5653 42.6799
rfemur -7.43137 6.17766 22.4395
rtibia 23.5606
rfoot -18.3752 -8.19857
rtoes -8.09123
lfemur -6.9091 -1.45086 -19.1256
ltibia 25.3877
lfoot -26.9835 7.94797
ltoes -10.0251
681
root 45.0465 17.7794 12.2359 -78.9277 88.8864 -80.0463
lowerback -3.29831 -1.64871 4.29633
upperback -1.27853 -2.31094 -0.668084
thorax 0.335151 -1.16473 -3.1727
lowerneck -3.44181 5.63749 -0.211997
upperneck 10.4907 7.78145 -0.541884
head 4.05194 3.86065 0.216781
rclavicle -1.7052e-014 -8.94531e-015
rhumerus -32.0467 -6.04874 -92.7535
rradius 25.9469
rwrist 34.3811
rhand 15.1733 -17.3782
rfingers 7.12502
rthumb 40.0147 -42.5998
lclavicle -1.7052e-014 -8.94531e-015
lhumerus -37.1895 12.0795 87.8199
lradius 31.8285
lwrist -16.4192
lhand -7.14853 13.5773
lfingers 7.12502
lthumb 18.728 42.6958
rfemur -7.43658 6.16295 22.4217
rtibia 23.6029
rfoot -18.3953 -8.19445
rtoes -8.17252
lfemur -6.86638 -1.40697 -19.1511
ltibia 25.3524
lfoot -26.8696 8.03118
ltoes -10.5236
682
root 45.046 17.7787 12.2343 -77.7771 88.9255 -78.868
lowerback -3.29429 -1.64247 4.28405
upperback -1.27102 -2.30222 -0.688407
thorax 0.341037 -1.1602 -3.18652
lowerneck -3.40484 5.85152 0.0691218
upperneck 10.4928 8.07615 -0.780288
head 4.07184 4.007 0.104123
rclavicle 1.07188e-014 3.47873e-015
rhumerus -32.0596 -6.066 -92.7688
rradius 25.9463
rwrist 34.2677
rhand 15.1874 -17.385
rfingers 7.12502
rthumb 40.028 -42.6026
lclavicle 1.07188e-014 3.47873e-015
lhumerus -37.2075 12.2079 87.7094
lradius 31.6979
lwrist -16.6532
lhand -7.01854 13.6275
lfingers 7.12502
lthumb 18.853 42.7339
rfemur -7.41342 5.9335 22.3635
rtibia 23.6243
rfoot -18.3903 -8.00336
rtoes -8.32642
lfemur -6.81888 -1.39971 -19.2022
ltibia 25.3343
lfoot -26.959 7.96347
ltoes -10.0613
683
root 45.0457 17.7784 12.2325 -77.0888 88.927 -78.1645
lowerback -3.29843 -1.63665 4.30832
upperback -1.27144 -2.29539 -0.686616
thorax 0.342594 -1.15681 -3.19824
lowerneck -3.56858 6.01939 -0.242708
upperneck 10.6793 8.29702 -0.446586
head 4.13971 4.11738 0.286415
rclavicle 6.0238e-014 9.93923e-017
rhumerus -32.07 -6.14374 -92.7357
rradius 25.9043
rwrist 34.2749
rhand 15.0943 -17.3897
rfingers 7.12502
rthumb 39.9404 -42.6337
lclavicle 6.0238e-014 9.93923e-017
lhumerus -37.1976 11.8375 87.8461
lradius 31.5671
lwrist -16.2502
lhand -7.22907 13.6815
lfingers 7.12502
lthumb 18.6505 42.8075
rfemur -7.4101 6.00474 22.3524
rtibia 23.6472
rfoot -18.409 -8.05183
rtoes -8.25444
lfemur -6.78397 -1.42065 -19.2191
ltibia 25.3113
lfoot -26.9339 8.01762
ltoes -10.2627
684
root 45.0449 17.7813 12.2297 -76.083 88.9625 -77.1722
lowerback -3.32801 -1.63642 4.29446
upperback -1.27329 -2.29587 -0.684047
thorax 0.357863 -1.15663 -3.18883
lowerneck -3.6485 6.23251 -0.165697
upperneck 10.7347 8.59079 -0.533591
head 4.18467 4.26072 0.263705
rclavicle 1.27036e-014 -1.68967e-015
rhumerus -32.0926 -6.16984 -92.7031
rradius 25.9233
rwrist 34.342
rhand 15.0577 -17.3504
rfingers 7.12502
rthumb 39.9059 -42.6048
lclavicle 1.27036e-014 -1.68967e-015
lhumerus -37.239 12.5503 87.5016
lradius 31.3493
lwrist -16.9769
lhand -7.15088 13.181
lfingers 7.12502
lthumb 18.7257 42.2997
rfemur -7.4323 6.14333 22.2984
rtibia 23.65
rfoot -18.453 -8.13591
rtoes -8.07101
lfemur -6.81225 -1.50437 -19.2729
ltibia 25.3064
lfoot -26.9282 8.01299
ltoes -10.0535
685
root 45.044 17.7818 12.2274 -74.6961 89.0256 -75.799
lowerback -3.36744 -1.64144 4.23659
upperback -1.26362 -2.3027 -0.691129
thorax 0.391362 -1.15897 -3.16545
lowerneck -3.58392 6.46476 -0.000834988
upperneck 10.659 8.90542 -0.683209
head 4.16272 4.4166 0.197908
rclavicle -6.26793e-015 -7.05686e-015
rhumerus -32.0825 -6.19518 -92.7039
rradius 25.9903
rwrist 34.0773
rhand 15.1623 -17.5264
rfingers 7.12502
rthumb 40.0044 -42.7511
lclavicle -6.26793e-015 -7.05686e-015
lhumerus -37.2279 12.9603 87.3228
lradius 31.232
lwrist -17.2725
lhand -7.11312 13.2597
lfingers 7.12502
lthumb 18.762 42.3749
rfemur -7.45527 6.4124 22.2102
rtibia 23.6474
rfoot -18.4891 -8.28657
rtoes -7.86122
lfemur -6.83489 -1.50081 -19.3567
ltibia 25.3098
lfoot -26.8388 8.05167
ltoes -10.288
686
root 45.0424 17.7816 12.225 -75.3195 89.0313 -76.4188
lowerback -3.36312 -1.64641 4.25534
upperback -1.26738 -2.30966 -0.679608
thorax 0.384192 -1.16267 -3.16406
lowerneck -3.48911 6.70985 0.214461
upperneck 10.5887 9.24158 -0.896441
head 4.14479 4.58272 0.103179
rclavicle -9.42053e-015 -5.56597e-015
rhumerus -32.1089 -6.2607 -92.6658
rradius 26.0186
rwrist 34.0643
rhand 15.1792 -17.5641
rfingers 7.12502
rthumb 40.0203 -42.784
lclavicle -9.42053e-015 -5.56597e-015
lhumerus -37.2405 13.1349 87.2234
lradius 31.0953
lwrist -17.4766
lhand -7.20176 13.0649
lfingers 7.12502
lthumb 18.6768 42.1883
rfemur -7.45699 6.25791 22.1971
rtibia 23.6629
rfoot -18.4812 -8.19075
rtoes -7.98011
lfemur -6.83681 -1.4769 -19.3675
ltibia 25.2987
lfoot -26.894 8.00589
ltoes -10.0851
687
root 45.0404 17.7784 12.2225 -76.9865 88.937 -78.0645
lowerback -3.32553 -1.63942 4.39539
upperback -1.2737 -2.30302 -0.648908
thorax 0.352742 -1.16048 -3.20933
lowerneck -3.35122 6.92063 0.300334
upperneck 10.49 9.52642 -0.984862
head 4.09468 4.72485 0.0654216
rclavicle 1.63904e-014 4.27387e-015
rhumerus -32.1565 -6.33307 -92.6142
rradius 26.0348
rwrist 34.2276
rhand 15.2591 -17.4732
rfingers 7.12502
rthumb 40.0955 -42.6704
lclavicle 1.63904e-014 4.27387e-015
lhumerus -37.2404 12.5598 87.4752
lradius 31.0783
lwrist -16.8032
lhand -7.01367 13.2256
lfingers 7.12502
lthumb 18.8577 42.3315
rfemur -7.44457 6.19512 22.3114
rtibia 23.6879
rfoot -18.4547 -8.21557
rtoes -8.15437
lfemur -6.80825 -1.47743 -19.271
ltibia 25.283
lfoot -26.8997 8.07584
ltoes -10.1664
688
root 45.0401 17.778 12.2224 -76.0495 89.0331 -77.122
lowerback -3.3478 -1.63921 4.29751
upperback -1.25978 -2.30108 -0.663031
thorax 0.383145 -1.15838 -3.17
lowerneck -3.25053 7.12585 0.468
upperneck 10.3799 9.80816 -1.17619
head 4.05977 4.86356 -0.018
rclavicle 1.96145e-014 -9.98893e-015
rhumerus -32.1387 -6.14244 -92.6802
rradius 25.9994
rwrist 33.9929
rhand 15.0748 -17.4751
rfingers 7.12502
rthumb 39.9221 -42.7246
lclavicle 1.96145e-014 -9.98893e-015
lhumerus -37.2394 13.0521 87.1925
lradius 30.8938
lwrist -17.5589
lhand -6.64628 12.6802
lfingers 7.12502
lthumb 19.211 41.7514
rfemur -7.43795 6.12278 22.1981
rtibia 23.6943
rfoot -18.4504 -8.1679
rtoes -8.33031
lfemur -6.81085 -1.42742 -19.3847
ltibia 25.2833
lfoot -24.9409 8.76274
ltoes -16.4473
689
root 45.0388 17.7782 12.2207 -76.5445 89.045 -77.6377
lowerback -3.37503 -1.64724 4.29405
upperback -1.26431 -2.31271 -0.6571
thorax 0.393098 -1.16395 -3.16315
lowerneck -3.17902 7.33249 0.539641
upperneck 10.3043 10.0859 -1.23854
head 4.03011 5.00196 -0.0418957
rclavicle -1.07934e-014 -4.22417e-015
rhumerus -32.1606 -6.08325 -92.7015
rradius 26.0029
rwrist 34.0154
rhand 14.9687 -17.4417
rfingers 7.12502
rthumb 39.8221 -42.7212
lclavicle -1.07934e-014 -4.22417e-015
lhumerus -37.2357 13.4823 86.9516
lradius 30.7531
lwrist -17.9422
lhand -6.57374 12.7868
lfingers 7.12502
lthumb 19.2807 41.8511
rfemur -7.46634 6.31197 22.1821
rtibia 23.6985
rfoot -18.4627 -8.31473
rtoes -8.13954
lfemur -6.85025 -1.45583 -19.4051
ltibia 25.2819
lfoot -24.0052 9.10922
ltoes -19.1901
690
root 45.0366 17.7798 12.2168 -76.9176 89.0345 -78.0151
lowerback -3.36967 -1.64702 4.34127
upperback -1.26386 -2.31371 -0.651698
thorax 0.388751 -1.16466 -3.18391
lowerneck -3.1039 7.50856 0.595844
upperneck 10.242 10.324 -1.2983
head 4.0034 5.12039 -0.0641797
rclavicle 3.33182e-014 3.47873e-016
rhumerus -32.1789 -6.10404 -92.69
rradius 26.0115
rwrist 34.0138
rhand 14.8037 -17.4492
rfingers 7.12502
rthumb 39.6668 -42.7749
lclavicle 3.33182e-014 3.47873e-016
lhumerus -37.2136 13.543 86.8703
lradius 30.639
lwrist -18.0617
lhand -6.51306 12.5923
lfingers 7.12502
lthumb 19.3391 41.6506
rfemur -7.49614 6.36622 22.1756
rtibia 23.7223
rfoot -18.4941 -8.33255
rtoes -8.04281
lfemur -6.87367 -1.46778 -19.3991
ltibia 25.2727
lfoot -25.8289 8.35025
ltoes -13.4347
691
root 45.0365 17.7809 12.2138 -75.9543 89.0376 -77.0659
lowerback -3.39979 -1.63969 4.36538
upperback -1.26303 -2.30602 -0.655291
thorax 0.40597 -1.16044 -3.20199
lowerneck -3.04754 7.66941 0.694
upperneck 10.1963 10.5452 -1.41128
head 3.99273 5.22952 -0.109877
rclavicle -3.44022e-014 4.52235e-015
rhumerus -32.1971 -6.14217 -92.6816
rradius 26.0264
rwrist 34.0864
rhand 14.8413 -17.4074
rfingers 7.12502
rthumb 39.7022 -42.7226
lclavicle -3.44022e-014 4.52235e-015
lhumerus -37.2325 13.472 86.8746
lradius 30.6365
lwrist -17.9359
lhand -6.64549 12.3899
lfingers 7.12502
lthumb 19.2117 41.461
rfemur -7.524 6.64149 22.1581
rtibia 23.7278
rfoot -18.5209 -8.52298
rtoes -7.77988
lfemur -6.89522 -1.49997 -19.4167
ltibia 25.281
lfoot -26.8522 7.99549
ltoes -10.0205
